<svg width="1000" height="1170" viewBox="0 0 1000 1170" fill="none" xmlns="http://www.w3.org/2000/svg">
<rect y="85" width="1000" height="1000" rx="293" fill="url(#paint0_linear_11_5)"/>
<path d="M494.9 907.2C466.7 907.2 434 906 396.8 903.6C359.6 901.2 313.4 900 258.2 900C245 883.8 238.4 864.9 238.4 843.3C258.8 843.3 273.2 840 281.6 833.4C290 826.2 294.2 814.2 294.2 797.4V374.4C294.2 357.6 290 345.9 281.6 339.3C273.2 332.1 258.8 328.5 238.4 328.5C238.4 306.9 245 288 258.2 271.8C300.8 271.8 334.7 271.5 359.9 270.9C385.1 269.7 406.4 268.8 423.8 268.2C441.8 267.6 459.8 267.3 477.8 267.3C530 267.3 572.9 272.1 606.5 281.7C640.1 290.7 666.2 302.7 684.8 317.7C704 332.1 717.2 348.3 724.4 366.3C732.2 383.7 736.1 401.1 736.1 418.5C736.1 452.1 727.4 480.9 710 504.9C692.6 528.9 663.2 549.6 621.8 567C673.4 577.8 710.9 594.6 734.3 617.4C758.3 640.2 770.3 675.6 770.3 723.6C770.3 747 766.4 769.8 758.6 792C750.8 813.6 736.7 833.1 716.3 850.5C696.5 867.9 668.6 881.7 632.6 891.9C596.6 902.1 550.7 907.2 494.9 907.2ZM469.7 545.4C513.5 545.4 544.4 535.8 562.4 516.6C581 497.4 590.3 471.6 590.3 439.2C590.3 406.8 581.3 381 563.3 361.8C545.9 342.6 518 333 479.6 333C473.6 333 467 333.3 459.8 333.9C453.2 334.5 447.5 335.4 442.7 336.6V543.6C446.9 544.2 451.4 544.8 456.2 545.4C461 545.4 465.5 545.4 469.7 545.4ZM480.5 841.5C564.5 841.5 606.5 805.2 606.5 732.6C606.5 691.8 596 661.2 575 640.8C554.6 620.4 520.4 610.2 472.4 610.2C467.6 610.2 462.2 610.5 456.2 611.1C450.8 611.1 446.3 611.1 442.7 611.1V838.8C446.9 839.4 452.3 840 458.9 840.6C465.5 841.2 472.7 841.5 480.5 841.5Z" fill="#F2C2C2"/>
<defs>
<linearGradient id="paint0_linear_11_5" x1="0" y1="585" x2="1000" y2="585" gradientUnits="userSpaceOnUse">
<stop stop-color="#FC5A14"/>
<stop offset="1" stop-color="#EF0E72"/>
</linearGradient>
</defs>
</svg>
